<svg width="18" height="12" viewBox="0 0 18 12" fill="none" xmlns="http://www.w3.org/2000/svg">
<path fill-rule="evenodd" clip-rule="evenodd" d="M1.66699 7.33337H2.66699C3.21928 7.33337 3.66699 7.78109 3.66699 8.33337V10.3334C3.66699 10.8857 3.21928 11.3334 2.66699 11.3334H1.66699C1.11471 11.3334 0.666992 10.8857 0.666992 10.3334V8.33337C0.666992 7.78109 1.11471 7.33337 1.66699 7.33337ZM6.33398 5.33337H7.33398C7.88627 5.33337 8.33398 5.78109 8.33398 6.33337V10.3334C8.33398 10.8857 7.88627 11.3334 7.33398 11.3334H6.33398C5.7817 11.3334 5.33398 10.8857 5.33398 10.3334V6.33337C5.33398 5.78109 5.7817 5.33337 6.33398 5.33337ZM11 3.00012H12C12.5523 3.00012 13 3.44784 13 4.00012V10.3335C13 10.8857 12.5523 11.3335 12 11.3335H11C10.4477 11.3335 10 10.8857 10 10.3335V4.00012C10 3.44784 10.4477 3.00012 11 3.00012ZM15.667 0.666748H16.667C17.2193 0.666748 17.667 1.11446 17.667 1.66675V10.3334C17.667 10.8857 17.2193 11.3334 16.667 11.3334H15.667C15.1147 11.3334 14.667 10.8857 14.667 10.3334V1.66675C14.667 1.11446 15.1147 0.666748 15.667 0.666748Z" fill="#060606"/>
</svg>
