<svg width="16" height="12" viewBox="0 0 16 12" fill="none" xmlns="http://www.w3.org/2000/svg">
<path fill-rule="evenodd" clip-rule="evenodd" d="M8.32997 2.60789C10.5459 2.60799 12.677 3.45943 14.283 4.98623C14.4039 5.1041 14.5972 5.10261 14.7163 4.98289L15.8723 3.81623C15.9326 3.7555 15.9662 3.67325 15.9657 3.58767C15.9652 3.50209 15.9306 3.42024 15.8696 3.36023C11.6545 -0.67932 5.00473 -0.67932 0.789632 3.36023C0.728573 3.4202 0.693929 3.50202 0.693366 3.5876C0.692803 3.67318 0.726368 3.75546 0.786632 3.81623L1.94297 4.98289C2.06199 5.1028 2.25544 5.10428 2.3763 4.98623C3.98245 3.45933 6.11385 2.60789 8.32997 2.60789ZM8.32977 6.40359C9.54726 6.40351 10.7213 6.85605 11.6238 7.67325C11.7458 7.78923 11.9381 7.78672 12.0571 7.66759L13.2118 6.50092C13.2726 6.43973 13.3063 6.35671 13.3054 6.27044C13.3046 6.18418 13.2691 6.10187 13.2071 6.04192C10.4589 3.48554 6.20297 3.48554 3.45477 6.04192C3.39269 6.10187 3.35727 6.18422 3.35646 6.27051C3.35564 6.35681 3.3895 6.43981 3.45044 6.50092L4.60477 7.66759C4.72376 7.78672 4.91604 7.78923 5.0381 7.67325C5.93998 6.85659 7.11309 6.40409 8.32977 6.40359ZM10.5488 9.18792C10.6106 9.12731 10.6446 9.04391 10.6428 8.9574C10.6411 8.87089 10.6037 8.78895 10.5395 8.73092C9.26393 7.65203 7.39574 7.65203 6.12017 8.73092C6.05595 8.7889 6.0185 8.87082 6.01667 8.95733C6.01484 9.04384 6.04879 9.12726 6.1105 9.18792L8.10817 11.2036C8.16672 11.2628 8.24654 11.2962 8.32983 11.2962C8.41313 11.2962 8.49295 11.2628 8.5515 11.2036L10.5488 9.18792Z" fill="#060606"/>
</svg>
